<svg width="132" height="132" viewBox="0 0 132 132" fill="none" xmlns="http://www.w3.org/2000/svg">
<g clip-path="url(#clip0_33_5)">
<path d="M65.593 0C48.1967 0 31.5128 6.91067 19.2117 19.2117C6.91067 31.5128 0 48.1967 0 65.593C0 82.9894 6.91067 99.6732 19.2117 111.974C31.5128 124.275 48.1967 131.186 65.593 131.186C82.9894 131.186 99.6732 124.275 111.974 111.974C124.275 99.6732 131.186 82.9894 131.186 65.593C131.186 48.1967 124.275 31.5128 111.974 19.2117C99.6732 6.91067 82.9894 0 65.593 0ZM82.8822 119.068H82.3739C81.9921 119.089 81.6098 119.033 81.2508 118.901C80.8917 118.769 80.5633 118.566 80.2858 118.302C80.0294 118.031 79.8297 117.712 79.6983 117.363C79.5669 117.014 79.5065 116.642 79.5206 116.269V108.584C79.5534 106.031 79.5752 103.446 79.5752 100.844C79.5663 98.9412 79.2884 97.0494 78.7499 95.2246C78.2397 93.38 77.2116 91.7202 75.7873 90.4418C79.5971 90.074 83.3423 89.2085 86.9271 87.8673C89.9511 86.7174 92.6863 84.9187 94.9404 82.598C97.1651 80.264 98.8213 77.4435 99.7779 74.3661C100.941 70.5973 101.495 66.6668 101.418 62.7233C101.439 59.9699 100.957 57.2358 99.9965 54.6554C99.0202 52.0546 97.5439 49.6702 95.651 47.6369C96.0596 46.6114 96.3565 45.5448 96.5365 44.4557C96.7169 43.3624 96.8098 42.2583 96.8098 41.1541C96.8098 39.733 96.6458 38.3118 96.3179 36.9289C96.0199 35.5104 95.6161 34.1163 95.1099 32.7582C94.9166 32.6828 94.7105 32.6457 94.5031 32.6489H93.9019C92.6447 32.6599 91.4093 32.8676 90.2177 33.2557C88.9051 33.6388 87.6211 34.1137 86.3751 34.6768C85.1359 35.2323 83.9295 35.8582 82.762 36.5517C81.5868 37.2459 80.5482 37.9128 79.6299 38.5304C70.4345 35.9675 60.7133 35.9675 51.5178 38.5304C50.4923 37.8448 49.4498 37.1851 48.3912 36.5517C47.2071 35.8525 45.9803 35.2281 44.718 34.6823C43.4754 34.1005 42.1864 33.6233 40.8644 33.2557C39.6963 32.8698 38.476 32.6651 37.2459 32.6489H36.6446C36.439 32.646 36.2348 32.6831 36.0434 32.7582C35.5299 34.1182 35.1098 35.5117 34.7862 36.9289C34.491 38.3172 34.3489 39.733 34.3434 41.1541C34.3434 42.2583 34.4363 43.3624 34.6222 44.4557C34.8026 45.5434 35.0923 46.6093 35.4967 47.6369C33.6087 49.6729 32.1379 52.0592 31.1676 54.6608C30.2016 57.2403 29.7145 59.9744 29.73 62.7288C29.6536 66.6511 30.1921 70.5612 31.3261 74.3169C32.3155 77.3943 33.9662 80.2203 36.1581 82.6035C38.4266 84.9101 41.1596 86.703 44.1714 87.8728C47.7408 89.2393 51.4796 90.1139 55.284 90.4746C54.2217 91.4374 53.3791 92.6174 52.8133 93.9347C52.275 95.2374 51.9076 96.6044 51.7201 98.0014C49.7145 98.9617 47.521 99.4657 45.2974 99.4773C43.2324 99.5599 41.1943 98.9858 39.4761 97.8374C37.8277 96.6158 36.4318 95.0863 35.3656 93.3334C34.8884 92.5971 34.3548 91.899 33.7695 91.2453C33.152 90.558 32.4712 89.9302 31.7361 89.3705C31.0115 88.829 30.2172 88.3878 29.3747 88.0586C28.5458 87.6952 27.6506 87.5072 26.7456 87.5065C26.5269 87.512 26.3083 87.5339 26.0896 87.5612C25.791 87.5602 25.4935 87.597 25.2041 87.6705C24.9498 87.7371 24.7092 87.8481 24.4935 87.9985C24.3955 88.0525 24.3135 88.1316 24.2559 88.2276C24.1983 88.3236 24.1671 88.4331 24.1656 88.5451C24.1885 88.8082 24.2689 89.063 24.4012 89.2915C24.5334 89.5201 24.7142 89.7169 24.9308 89.8679C25.4392 90.2724 25.86 90.5839 26.1989 90.8026L26.3629 90.9174C27.0899 91.4804 27.7896 92.0871 28.451 92.7376C29.0632 93.2733 29.6152 93.88 30.0908 94.5414C30.5827 95.1918 31.0091 95.886 31.3535 96.624C31.7525 97.3564 32.1734 98.1982 32.6161 99.1548C33.6437 101.746 35.4694 103.938 37.8308 105.413C40.3069 106.742 43.0837 107.403 45.8987 107.332C46.8498 107.332 47.8064 107.277 48.752 107.168C49.6922 107.015 50.6269 106.856 51.567 106.671V116.198C51.584 116.582 51.5198 116.966 51.3785 117.323C51.2372 117.681 51.0221 118.005 50.7471 118.273C50.4721 118.542 50.1435 118.75 49.7828 118.883C49.422 119.016 49.0373 119.072 48.6536 119.046H48.3147C35.568 114.928 24.7103 106.395 17.6968 94.982C10.6833 83.5695 7.97483 70.0279 10.0591 56.7958C12.1434 43.5636 18.8835 31.5103 29.0657 22.8065C39.2479 14.1026 52.2032 9.32006 65.5985 9.32006C78.9938 9.32006 91.949 14.1026 102.131 22.8065C112.313 31.5103 119.054 43.5636 121.138 56.7958C123.222 70.0279 120.514 83.5695 113.5 94.982C106.487 106.395 95.6289 114.928 82.8822 119.046V119.068Z" fill="white"/>
</g>
<defs>
<clipPath id="clip0_33_5">
<rect width="131.186" height="131.186" fill="white"/>
</clipPath>
</defs>
</svg>
