<svg width="136" height="128" viewBox="0 0 136 128" fill="none" xmlns="http://www.w3.org/2000/svg">
<g clip-path="url(#clip0_31_664)">
<path d="M65.4082 127.261H71.0553C101.71 127.261 117.041 127.261 126.561 118.357C136.081 109.454 136 95.1224 136 66.5251V61.1679C136 32.5756 136 18.2389 126.561 9.33553C117.122 0.432154 101.71 0.432129 71.0553 0.432129H65.4082C34.7477 0.432129 19.4228 0.432154 9.90246 9.33553C0.382074 18.2389 0.38208 32.5655 0.38208 61.1679V66.5251C0.38208 95.1224 0.382074 109.454 9.90246 118.357C19.4228 127.261 34.7477 127.261 65.4082 127.261Z" fill="#0077FF"/>
<path d="M73.1556 91.8749C42.5764 91.8749 24.0185 72.0338 23.297 39.0635H38.7846C39.2674 63.2827 51.0499 73.5609 60.082 75.6561V39.0635H74.9295V59.9598C83.6416 59.0567 92.7551 49.5497 95.8255 39.0635H110.423C108.085 51.9645 98.1635 61.4716 91.144 65.3931C98.1635 68.5638 109.458 76.8635 113.814 91.8749H97.7621C94.3716 81.8402 86.061 74.0682 74.9295 73.013V91.8749H73.1556Z" fill="white"/>
</g>
<defs>
<clipPath id="clip0_31_664">
<rect width="135.618" height="126.829" fill="white" transform="translate(0.38208 0.432129)"/>
</clipPath>
</defs>
</svg>
