<svg width="1920" height="95" viewBox="0 0 1920 95" fill="none" xmlns="http://www.w3.org/2000/svg">
<rect x="-77" width="2033" height="95" fill="#FFB800"/>
<path d="M-237.8 34.08C-236.093 34.08 -234.28 34.1333 -232.36 34.24C-230.44 34.3467 -228.547 34.48 -226.68 34.64C-224.76 34.8 -223 35.0133 -221.4 35.28L-221.96 40.24C-224.413 40.1333 -226.893 40.0533 -229.4 40C-231.853 39.8933 -234.307 39.84 -236.76 39.84C-239.16 39.7867 -241.053 39.84 -242.44 40C-243.827 40.16 -244.84 40.5867 -245.48 41.28C-246.067 41.9733 -246.36 43.1467 -246.36 44.8C-246.36 46.8267 -245.88 48.16 -244.92 48.8C-243.96 49.44 -242.547 49.9733 -240.68 50.4L-229.32 52.96C-226.227 53.7067 -223.96 54.8533 -222.52 56.4C-221.027 57.9467 -220.28 60.3733 -220.28 63.68C-220.28 66.88 -220.893 69.28 -222.12 70.88C-223.293 72.48 -225.107 73.5467 -227.56 74.08C-230.013 74.6133 -233.133 74.88 -236.92 74.88C-238.307 74.88 -240.387 74.8267 -243.16 74.72C-245.88 74.6133 -248.893 74.2933 -252.2 73.76L-251.72 68.8C-250.44 68.8533 -249.08 68.9333 -247.64 69.04C-246.2 69.0933 -244.707 69.12 -243.16 69.12C-241.56 69.12 -239.933 69.12 -238.28 69.12C-235.347 69.12 -233.053 68.9867 -231.4 68.72C-229.747 68.4533 -228.573 67.9467 -227.88 67.2C-227.187 66.4 -226.84 65.2267 -226.84 63.68C-226.84 61.76 -227.4 60.48 -228.52 59.84C-229.64 59.2 -231.133 58.6667 -233 58.24L-244.2 55.68C-246.333 55.1467 -248.04 54.4533 -249.32 53.6C-250.6 52.6933 -251.533 51.5467 -252.12 50.16C-252.707 48.72 -253 46.9333 -253 44.8C-253 41.76 -252.467 39.4667 -251.4 37.92C-250.333 36.3733 -248.68 35.3333 -246.44 34.8C-244.2 34.2667 -241.32 34.0267 -237.8 34.08ZM-178.295 35.04L-190.535 49.36C-190.908 49.84 -191.362 50.3467 -191.895 50.88C-192.428 51.36 -192.882 51.7333 -193.255 52V52.16C-192.882 52.4267 -192.428 52.88 -191.895 53.52C-191.362 54.1067 -190.908 54.6933 -190.535 55.28L-177.015 74H-184.935L-200.375 51.68L-186.215 35.04H-178.295ZM-203.335 18L-203.255 42.88C-203.255 44.5333 -203.335 46.08 -203.495 47.52C-203.602 48.9067 -203.788 50.3733 -204.055 51.92C-203.788 53.4133 -203.602 54.9067 -203.495 56.4C-203.388 57.8933 -203.335 59.3333 -203.335 60.72V74H-210.135V18H-203.335ZM-196.695 49.52V54.48H-205.735V49.52H-196.695ZM-162.392 35.04V74H-169.112V35.04H-162.392ZM-164.152 18.48C-162.765 18.48 -162.072 19.1733 -162.072 20.56V25.12C-162.072 26.5067 -162.765 27.2 -164.152 27.2H-167.352C-168.739 27.2 -169.432 26.5067 -169.432 25.12V20.56C-169.432 19.1733 -168.739 18.48 -167.352 18.48H-164.152ZM-142.708 18L-142.788 63.28C-142.788 64.9867 -142.335 66.2933 -141.428 67.2C-140.468 68.0533 -139.135 68.48 -137.428 68.48H-133.668L-132.868 73.68C-133.348 73.8933 -134.041 74.08 -134.948 74.24C-135.801 74.4 -136.708 74.5067 -137.668 74.56C-138.575 74.6667 -139.348 74.72 -139.988 74.72C-142.868 74.72 -145.188 73.8667 -146.948 72.16C-148.655 70.4533 -149.508 68 -149.508 64.8V18H-142.708ZM-118.958 18L-119.038 63.28C-119.038 64.9867 -118.585 66.2933 -117.678 67.2C-116.718 68.0533 -115.385 68.48 -113.678 68.48H-109.918L-109.118 73.68C-109.598 73.8933 -110.291 74.08 -111.198 74.24C-112.051 74.4 -112.958 74.5067 -113.918 74.56C-114.825 74.6667 -115.598 74.72 -116.238 74.72C-119.118 74.72 -121.438 73.8667 -123.198 72.16C-124.905 70.4533 -125.758 68 -125.758 64.8V18H-118.958ZM-89.1281 34.08C-87.4215 34.08 -85.6081 34.1333 -83.6881 34.24C-81.7681 34.3467 -79.8748 34.48 -78.0081 34.64C-76.0881 34.8 -74.3281 35.0133 -72.7281 35.28L-73.2881 40.24C-75.7415 40.1333 -78.2215 40.0533 -80.7281 40C-83.1815 39.8933 -85.6348 39.84 -88.0881 39.84C-90.4881 39.7867 -92.3815 39.84 -93.7681 40C-95.1548 40.16 -96.1681 40.5867 -96.8081 41.28C-97.3948 41.9733 -97.6881 43.1467 -97.6881 44.8C-97.6881 46.8267 -97.2081 48.16 -96.2481 48.8C-95.2881 49.44 -93.8748 49.9733 -92.0081 50.4L-80.6481 52.96C-77.5548 53.7067 -75.2881 54.8533 -73.8481 56.4C-72.3548 57.9467 -71.6081 60.3733 -71.6081 63.68C-71.6081 66.88 -72.2215 69.28 -73.4481 70.88C-74.6215 72.48 -76.4348 73.5467 -78.8881 74.08C-81.3415 74.6133 -84.4615 74.88 -88.2481 74.88C-89.6348 74.88 -91.7148 74.8267 -94.4881 74.72C-97.2081 74.6133 -100.221 74.2933 -103.528 73.76L-103.048 68.8C-101.768 68.8533 -100.408 68.9333 -98.9681 69.04C-97.5281 69.0933 -96.0348 69.12 -94.4881 69.12C-92.8881 69.12 -91.2615 69.12 -89.6081 69.12C-86.6748 69.12 -84.3815 68.9867 -82.7281 68.72C-81.0748 68.4533 -79.9015 67.9467 -79.2081 67.2C-78.5148 66.4 -78.1681 65.2267 -78.1681 63.68C-78.1681 61.76 -78.7281 60.48 -79.8481 59.84C-80.9681 59.2 -82.4615 58.6667 -84.3281 58.24L-95.5281 55.68C-97.6615 55.1467 -99.3681 54.4533 -100.648 53.6C-101.928 52.6933 -102.861 51.5467 -103.448 50.16C-104.035 48.72 -104.328 46.9333 -104.328 44.8C-104.328 41.76 -103.795 39.4667 -102.728 37.92C-101.661 36.3733 -100.008 35.3333 -97.7681 34.8C-95.5281 34.2667 -92.6481 34.0267 -89.1281 34.08ZM4.93438 34.08C6.64104 34.08 8.45438 34.1333 10.3744 34.24C12.2944 34.3467 14.1877 34.48 16.0544 34.64C17.9744 34.8 19.7344 35.0133 21.3344 35.28L20.7744 40.24C18.321 40.1333 15.841 40.0533 13.3344 40C10.881 39.8933 8.42771 39.84 5.97438 39.84C3.57438 39.7867 1.68104 39.84 0.294376 40C-1.09229 40.16 -2.10562 40.5867 -2.74562 41.28C-3.33229 41.9733 -3.62562 43.1467 -3.62562 44.8C-3.62562 46.8267 -3.14562 48.16 -2.18562 48.8C-1.22562 49.44 0.187709 49.9733 2.05438 50.4L13.4144 52.96C16.5077 53.7067 18.7744 54.8533 20.2144 56.4C21.7077 57.9467 22.4544 60.3733 22.4544 63.68C22.4544 66.88 21.841 69.28 20.6144 70.88C19.441 72.48 17.6277 73.5467 15.1744 74.08C12.721 74.6133 9.60104 74.88 5.81438 74.88C4.42771 74.88 2.34771 74.8267 -0.425624 74.72C-3.14562 74.6133 -6.15896 74.2933 -9.46562 73.76L-8.98563 68.8C-7.70562 68.8533 -6.34562 68.9333 -4.90562 69.04C-3.46562 69.0933 -1.97229 69.12 -0.425624 69.12C1.17438 69.12 2.80104 69.12 4.45438 69.12C7.38771 69.12 9.68104 68.9867 11.3344 68.72C12.9877 68.4533 14.161 67.9467 14.8544 67.2C15.5477 66.4 15.8944 65.2267 15.8944 63.68C15.8944 61.76 15.3344 60.48 14.2144 59.84C13.0944 59.2 11.601 58.6667 9.73438 58.24L-1.46562 55.68C-3.59896 55.1467 -5.30562 54.4533 -6.58562 53.6C-7.86562 52.6933 -8.79896 51.5467 -9.38562 50.16C-9.97229 48.72 -10.2656 46.9333 -10.2656 44.8C-10.2656 41.76 -9.73229 39.4667 -8.66562 37.92C-7.59896 36.3733 -5.94562 35.3333 -3.70563 34.8C-1.46562 34.2667 1.41438 34.0267 4.93438 34.08ZM64.4394 35.04L52.1994 49.36C51.826 49.84 51.3727 50.3467 50.8394 50.88C50.306 51.36 49.8527 51.7333 49.4794 52V52.16C49.8527 52.4267 50.306 52.88 50.8394 53.52C51.3727 54.1067 51.826 54.6933 52.1994 55.28L65.7194 74H57.7994L42.3594 51.68L56.5194 35.04H64.4394ZM39.3994 18L39.4794 42.88C39.4794 44.5333 39.3994 46.08 39.2394 47.52C39.1327 48.9067 38.946 50.3733 38.6794 51.92C38.946 53.4133 39.1327 54.9067 39.2394 56.4C39.346 57.8933 39.3994 59.3333 39.3994 60.72V74H32.5994V18H39.3994ZM46.0394 49.52V54.48H36.9994V49.52H46.0394ZM80.3425 35.04V74H73.6225V35.04H80.3425ZM78.5825 18.48C79.9692 18.48 80.6625 19.1733 80.6625 20.56V25.12C80.6625 26.5067 79.9692 27.2 78.5825 27.2H75.3825C73.9958 27.2 73.3025 26.5067 73.3025 25.12V20.56C73.3025 19.1733 73.9958 18.48 75.3825 18.48H78.5825ZM100.026 18L99.9463 63.28C99.9463 64.9867 100.4 66.2933 101.306 67.2C102.266 68.0533 103.6 68.48 105.306 68.48H109.066L109.866 73.68C109.386 73.8933 108.693 74.08 107.786 74.24C106.933 74.4 106.026 74.5067 105.066 74.56C104.16 74.6667 103.386 74.72 102.746 74.72C99.8663 74.72 97.5463 73.8667 95.7863 72.16C94.0796 70.4533 93.2263 68 93.2263 64.8V18H100.026ZM123.776 18L123.696 63.28C123.696 64.9867 124.15 66.2933 125.056 67.2C126.016 68.0533 127.35 68.48 129.056 68.48H132.816L133.616 73.68C133.136 73.8933 132.443 74.08 131.536 74.24C130.683 74.4 129.776 74.5067 128.816 74.56C127.91 74.6667 127.136 74.72 126.496 74.72C123.616 74.72 121.296 73.8667 119.536 72.16C117.83 70.4533 116.976 68 116.976 64.8V18H123.776ZM153.606 34.08C155.313 34.08 157.126 34.1333 159.046 34.24C160.966 34.3467 162.86 34.48 164.726 34.64C166.646 34.8 168.406 35.0133 170.006 35.28L169.446 40.24C166.993 40.1333 164.513 40.0533 162.006 40C159.553 39.8933 157.1 39.84 154.646 39.84C152.246 39.7867 150.353 39.84 148.966 40C147.58 40.16 146.566 40.5867 145.926 41.28C145.34 41.9733 145.046 43.1467 145.046 44.8C145.046 46.8267 145.526 48.16 146.486 48.8C147.446 49.44 148.86 49.9733 150.726 50.4L162.086 52.96C165.18 53.7067 167.446 54.8533 168.886 56.4C170.38 57.9467 171.126 60.3733 171.126 63.68C171.126 66.88 170.513 69.28 169.286 70.88C168.113 72.48 166.3 73.5467 163.846 74.08C161.393 74.6133 158.273 74.88 154.486 74.88C153.1 74.88 151.02 74.8267 148.246 74.72C145.526 74.6133 142.513 74.2933 139.206 73.76L139.686 68.8C140.966 68.8533 142.326 68.9333 143.766 69.04C145.206 69.0933 146.7 69.12 148.246 69.12C149.846 69.12 151.473 69.12 153.126 69.12C156.06 69.12 158.353 68.9867 160.006 68.72C161.66 68.4533 162.833 67.9467 163.526 67.2C164.22 66.4 164.566 65.2267 164.566 63.68C164.566 61.76 164.006 60.48 162.886 59.84C161.766 59.2 160.273 58.6667 158.406 58.24L147.206 55.68C145.073 55.1467 143.366 54.4533 142.086 53.6C140.806 52.6933 139.873 51.5467 139.286 50.16C138.7 48.72 138.406 46.9333 138.406 44.8C138.406 41.76 138.94 39.4667 140.006 37.92C141.073 36.3733 142.726 35.3333 144.966 34.8C147.206 34.2667 150.086 34.0267 153.606 34.08ZM247.669 34.08C249.375 34.08 251.189 34.1333 253.109 34.24C255.029 34.3467 256.922 34.48 258.789 34.64C260.709 34.8 262.469 35.0133 264.069 35.28L263.509 40.24C261.055 40.1333 258.575 40.0533 256.069 40C253.615 39.8933 251.162 39.84 248.709 39.84C246.309 39.7867 244.415 39.84 243.029 40C241.642 40.16 240.629 40.5867 239.989 41.28C239.402 41.9733 239.109 43.1467 239.109 44.8C239.109 46.8267 239.589 48.16 240.549 48.8C241.509 49.44 242.922 49.9733 244.789 50.4L256.149 52.96C259.242 53.7067 261.509 54.8533 262.949 56.4C264.442 57.9467 265.189 60.3733 265.189 63.68C265.189 66.88 264.575 69.28 263.349 70.88C262.175 72.48 260.362 73.5467 257.909 74.08C255.455 74.6133 252.335 74.88 248.549 74.88C247.162 74.88 245.082 74.8267 242.309 74.72C239.589 74.6133 236.575 74.2933 233.269 73.76L233.749 68.8C235.029 68.8533 236.389 68.9333 237.829 69.04C239.269 69.0933 240.762 69.12 242.309 69.12C243.909 69.12 245.535 69.12 247.189 69.12C250.122 69.12 252.415 68.9867 254.069 68.72C255.722 68.4533 256.895 67.9467 257.589 67.2C258.282 66.4 258.629 65.2267 258.629 63.68C258.629 61.76 258.069 60.48 256.949 59.84C255.829 59.2 254.335 58.6667 252.469 58.24L241.269 55.68C239.135 55.1467 237.429 54.4533 236.149 53.6C234.869 52.6933 233.935 51.5467 233.349 50.16C232.762 48.72 232.469 46.9333 232.469 44.8C232.469 41.76 233.002 39.4667 234.069 37.92C235.135 36.3733 236.789 35.3333 239.029 34.8C241.269 34.2667 244.149 34.0267 247.669 34.08ZM307.174 35.04L294.934 49.36C294.56 49.84 294.107 50.3467 293.574 50.88C293.04 51.36 292.587 51.7333 292.214 52V52.16C292.587 52.4267 293.04 52.88 293.574 53.52C294.107 54.1067 294.56 54.6933 294.934 55.28L308.454 74H300.534L285.094 51.68L299.254 35.04H307.174ZM282.134 18L282.214 42.88C282.214 44.5333 282.134 46.08 281.974 47.52C281.867 48.9067 281.68 50.3733 281.414 51.92C281.68 53.4133 281.867 54.9067 281.974 56.4C282.08 57.8933 282.134 59.3333 282.134 60.72V74H275.334V18H282.134ZM288.774 49.52V54.48H279.734V49.52H288.774ZM323.077 35.04V74H316.357V35.04H323.077ZM321.317 18.48C322.704 18.48 323.397 19.1733 323.397 20.56V25.12C323.397 26.5067 322.704 27.2 321.317 27.2H318.117C316.73 27.2 316.037 26.5067 316.037 25.12V20.56C316.037 19.1733 316.73 18.48 318.117 18.48H321.317ZM342.761 18L342.681 63.28C342.681 64.9867 343.134 66.2933 344.041 67.2C345.001 68.0533 346.334 68.48 348.041 68.48H351.801L352.601 73.68C352.121 73.8933 351.427 74.08 350.521 74.24C349.667 74.4 348.761 74.5067 347.801 74.56C346.894 74.6667 346.121 74.72 345.481 74.72C342.601 74.72 340.281 73.8667 338.521 72.16C336.814 70.4533 335.961 68 335.961 64.8V18H342.761ZM366.511 18L366.431 63.28C366.431 64.9867 366.884 66.2933 367.791 67.2C368.751 68.0533 370.084 68.48 371.791 68.48H375.551L376.351 73.68C375.871 73.8933 375.177 74.08 374.271 74.24C373.417 74.4 372.511 74.5067 371.551 74.56C370.644 74.6667 369.871 74.72 369.231 74.72C366.351 74.72 364.031 73.8667 362.271 72.16C360.564 70.4533 359.711 68 359.711 64.8V18H366.511ZM396.341 34.08C398.047 34.08 399.861 34.1333 401.781 34.24C403.701 34.3467 405.594 34.48 407.461 34.64C409.381 34.8 411.141 35.0133 412.741 35.28L412.181 40.24C409.727 40.1333 407.247 40.0533 404.741 40C402.287 39.8933 399.834 39.84 397.381 39.84C394.981 39.7867 393.087 39.84 391.701 40C390.314 40.16 389.301 40.5867 388.661 41.28C388.074 41.9733 387.781 43.1467 387.781 44.8C387.781 46.8267 388.261 48.16 389.221 48.8C390.181 49.44 391.594 49.9733 393.461 50.4L404.821 52.96C407.914 53.7067 410.181 54.8533 411.621 56.4C413.114 57.9467 413.861 60.3733 413.861 63.68C413.861 66.88 413.247 69.28 412.021 70.88C410.847 72.48 409.034 73.5467 406.581 74.08C404.127 74.6133 401.007 74.88 397.221 74.88C395.834 74.88 393.754 74.8267 390.981 74.72C388.261 74.6133 385.247 74.2933 381.941 73.76L382.421 68.8C383.701 68.8533 385.061 68.9333 386.501 69.04C387.941 69.0933 389.434 69.12 390.981 69.12C392.581 69.12 394.207 69.12 395.861 69.12C398.794 69.12 401.087 68.9867 402.741 68.72C404.394 68.4533 405.567 67.9467 406.261 67.2C406.954 66.4 407.301 65.2267 407.301 63.68C407.301 61.76 406.741 60.48 405.621 59.84C404.501 59.2 403.007 58.6667 401.141 58.24L389.941 55.68C387.807 55.1467 386.101 54.4533 384.821 53.6C383.541 52.6933 382.607 51.5467 382.021 50.16C381.434 48.72 381.141 46.9333 381.141 44.8C381.141 41.76 381.674 39.4667 382.741 37.92C383.807 36.3733 385.461 35.3333 387.701 34.8C389.941 34.2667 392.821 34.0267 396.341 34.08ZM490.403 34.08C492.11 34.08 493.923 34.1333 495.843 34.24C497.763 34.3467 499.656 34.48 501.523 34.64C503.443 34.8 505.203 35.0133 506.803 35.28L506.243 40.24C503.79 40.1333 501.31 40.0533 498.803 40C496.35 39.8933 493.896 39.84 491.443 39.84C489.043 39.7867 487.15 39.84 485.763 40C484.376 40.16 483.363 40.5867 482.723 41.28C482.136 41.9733 481.843 43.1467 481.843 44.8C481.843 46.8267 482.323 48.16 483.283 48.8C484.243 49.44 485.656 49.9733 487.523 50.4L498.883 52.96C501.976 53.7067 504.243 54.8533 505.683 56.4C507.176 57.9467 507.923 60.3733 507.923 63.68C507.923 66.88 507.31 69.28 506.083 70.88C504.91 72.48 503.096 73.5467 500.643 74.08C498.19 74.6133 495.07 74.88 491.283 74.88C489.896 74.88 487.816 74.8267 485.043 74.72C482.323 74.6133 479.31 74.2933 476.003 73.76L476.483 68.8C477.763 68.8533 479.123 68.9333 480.563 69.04C482.003 69.0933 483.496 69.12 485.043 69.12C486.643 69.12 488.27 69.12 489.923 69.12C492.856 69.12 495.15 68.9867 496.803 68.72C498.456 68.4533 499.63 67.9467 500.323 67.2C501.016 66.4 501.363 65.2267 501.363 63.68C501.363 61.76 500.803 60.48 499.683 59.84C498.563 59.2 497.07 58.6667 495.203 58.24L484.003 55.68C481.87 55.1467 480.163 54.4533 478.883 53.6C477.603 52.6933 476.67 51.5467 476.083 50.16C475.496 48.72 475.203 46.9333 475.203 44.8C475.203 41.76 475.736 39.4667 476.803 37.92C477.87 36.3733 479.523 35.3333 481.763 34.8C484.003 34.2667 486.883 34.0267 490.403 34.08ZM549.908 35.04L537.668 49.36C537.295 49.84 536.841 50.3467 536.308 50.88C535.775 51.36 535.321 51.7333 534.948 52V52.16C535.321 52.4267 535.775 52.88 536.308 53.52C536.841 54.1067 537.295 54.6933 537.668 55.28L551.188 74H543.268L527.828 51.68L541.988 35.04H549.908ZM524.868 18L524.948 42.88C524.948 44.5333 524.868 46.08 524.708 47.52C524.601 48.9067 524.415 50.3733 524.148 51.92C524.415 53.4133 524.601 54.9067 524.708 56.4C524.815 57.8933 524.868 59.3333 524.868 60.72V74H518.068V18H524.868ZM531.508 49.52V54.48H522.468V49.52H531.508ZM565.811 35.04V74H559.091V35.04H565.811ZM564.051 18.48C565.438 18.48 566.131 19.1733 566.131 20.56V25.12C566.131 26.5067 565.438 27.2 564.051 27.2H560.851C559.465 27.2 558.771 26.5067 558.771 25.12V20.56C558.771 19.1733 559.465 18.48 560.851 18.48H564.051ZM585.495 18L585.415 63.28C585.415 64.9867 585.868 66.2933 586.775 67.2C587.735 68.0533 589.068 68.48 590.775 68.48H594.535L595.335 73.68C594.855 73.8933 594.162 74.08 593.255 74.24C592.402 74.4 591.495 74.5067 590.535 74.56C589.628 74.6667 588.855 74.72 588.215 74.72C585.335 74.72 583.015 73.8667 581.255 72.16C579.548 70.4533 578.695 68 578.695 64.8V18H585.495ZM609.245 18L609.165 63.28C609.165 64.9867 609.618 66.2933 610.525 67.2C611.485 68.0533 612.818 68.48 614.525 68.48H618.285L619.085 73.68C618.605 73.8933 617.912 74.08 617.005 74.24C616.152 74.4 615.245 74.5067 614.285 74.56C613.378 74.6667 612.605 74.72 611.965 74.72C609.085 74.72 606.765 73.8667 605.005 72.16C603.298 70.4533 602.445 68 602.445 64.8V18H609.245ZM639.075 34.08C640.782 34.08 642.595 34.1333 644.515 34.24C646.435 34.3467 648.328 34.48 650.195 34.64C652.115 34.8 653.875 35.0133 655.475 35.28L654.915 40.24C652.462 40.1333 649.982 40.0533 647.475 40C645.022 39.8933 642.568 39.84 640.115 39.84C637.715 39.7867 635.822 39.84 634.435 40C633.048 40.16 632.035 40.5867 631.395 41.28C630.808 41.9733 630.515 43.1467 630.515 44.8C630.515 46.8267 630.995 48.16 631.955 48.8C632.915 49.44 634.328 49.9733 636.195 50.4L647.555 52.96C650.648 53.7067 652.915 54.8533 654.355 56.4C655.848 57.9467 656.595 60.3733 656.595 63.68C656.595 66.88 655.982 69.28 654.755 70.88C653.582 72.48 651.768 73.5467 649.315 74.08C646.862 74.6133 643.742 74.88 639.955 74.88C638.568 74.88 636.488 74.8267 633.715 74.72C630.995 74.6133 627.982 74.2933 624.675 73.76L625.155 68.8C626.435 68.8533 627.795 68.9333 629.235 69.04C630.675 69.0933 632.168 69.12 633.715 69.12C635.315 69.12 636.942 69.12 638.595 69.12C641.528 69.12 643.822 68.9867 645.475 68.72C647.128 68.4533 648.302 67.9467 648.995 67.2C649.688 66.4 650.035 65.2267 650.035 63.68C650.035 61.76 649.475 60.48 648.355 59.84C647.235 59.2 645.742 58.6667 643.875 58.24L632.675 55.68C630.542 55.1467 628.835 54.4533 627.555 53.6C626.275 52.6933 625.342 51.5467 624.755 50.16C624.168 48.72 623.875 46.9333 623.875 44.8C623.875 41.76 624.408 39.4667 625.475 37.92C626.542 36.3733 628.195 35.3333 630.435 34.8C632.675 34.2667 635.555 34.0267 639.075 34.08ZM733.138 34.08C734.844 34.08 736.658 34.1333 738.578 34.24C740.498 34.3467 742.391 34.48 744.258 34.64C746.178 34.8 747.938 35.0133 749.538 35.28L748.978 40.24C746.524 40.1333 744.044 40.0533 741.538 40C739.084 39.8933 736.631 39.84 734.178 39.84C731.778 39.7867 729.884 39.84 728.498 40C727.111 40.16 726.098 40.5867 725.458 41.28C724.871 41.9733 724.578 43.1467 724.578 44.8C724.578 46.8267 725.058 48.16 726.018 48.8C726.978 49.44 728.391 49.9733 730.258 50.4L741.618 52.96C744.711 53.7067 746.978 54.8533 748.418 56.4C749.911 57.9467 750.658 60.3733 750.658 63.68C750.658 66.88 750.044 69.28 748.818 70.88C747.644 72.48 745.831 73.5467 743.378 74.08C740.924 74.6133 737.804 74.88 734.018 74.88C732.631 74.88 730.551 74.8267 727.778 74.72C725.058 74.6133 722.044 74.2933 718.738 73.76L719.217 68.8C720.498 68.8533 721.858 68.9333 723.298 69.04C724.738 69.0933 726.231 69.12 727.778 69.12C729.378 69.12 731.004 69.12 732.658 69.12C735.591 69.12 737.884 68.9867 739.538 68.72C741.191 68.4533 742.364 67.9467 743.058 67.2C743.751 66.4 744.098 65.2267 744.098 63.68C744.098 61.76 743.538 60.48 742.418 59.84C741.298 59.2 739.804 58.6667 737.938 58.24L726.738 55.68C724.604 55.1467 722.898 54.4533 721.618 53.6C720.338 52.6933 719.404 51.5467 718.818 50.16C718.231 48.72 717.938 46.9333 717.938 44.8C717.938 41.76 718.471 39.4667 719.538 37.92C720.604 36.3733 722.258 35.3333 724.497 34.8C726.738 34.2667 729.618 34.0267 733.138 34.08ZM792.643 35.04L780.403 49.36C780.029 49.84 779.576 50.3467 779.043 50.88C778.509 51.36 778.056 51.7333 777.683 52V52.16C778.056 52.4267 778.509 52.88 779.043 53.52C779.576 54.1067 780.029 54.6933 780.403 55.28L793.923 74H786.003L770.563 51.68L784.723 35.04H792.643ZM767.603 18L767.683 42.88C767.683 44.5333 767.603 46.08 767.443 47.52C767.336 48.9067 767.149 50.3733 766.883 51.92C767.149 53.4133 767.336 54.9067 767.443 56.4C767.549 57.8933 767.603 59.3333 767.603 60.72V74H760.803V18H767.603ZM774.243 49.52V54.48H765.203V49.52H774.243ZM808.546 35.04V74H801.826V35.04H808.546ZM806.786 18.48C808.172 18.48 808.866 19.1733 808.866 20.56V25.12C808.866 26.5067 808.172 27.2 806.786 27.2H803.586C802.199 27.2 801.506 26.5067 801.506 25.12V20.56C801.506 19.1733 802.199 18.48 803.586 18.48H806.786ZM828.229 18L828.149 63.28C828.149 64.9867 828.603 66.2933 829.509 67.2C830.469 68.0533 831.803 68.48 833.509 68.48H837.269L838.069 73.68C837.589 73.8933 836.896 74.08 835.989 74.24C835.136 74.4 834.229 74.5067 833.269 74.56C832.363 74.6667 831.589 74.72 830.949 74.72C828.069 74.72 825.749 73.8667 823.989 72.16C822.283 70.4533 821.429 68 821.429 64.8V18H828.229ZM851.979 18L851.899 63.28C851.899 64.9867 852.353 66.2933 853.259 67.2C854.219 68.0533 855.553 68.48 857.259 68.48H861.019L861.819 73.68C861.339 73.8933 860.646 74.08 859.739 74.24C858.886 74.4 857.979 74.5067 857.019 74.56C856.113 74.6667 855.339 74.72 854.699 74.72C851.819 74.72 849.499 73.8667 847.739 72.16C846.033 70.4533 845.179 68 845.179 64.8V18H851.979ZM881.809 34.08C883.516 34.08 885.329 34.1333 887.249 34.24C889.169 34.3467 891.063 34.48 892.929 34.64C894.849 34.8 896.609 35.0133 898.209 35.28L897.649 40.24C895.196 40.1333 892.716 40.0533 890.209 40C887.756 39.8933 885.303 39.84 882.849 39.84C880.449 39.7867 878.556 39.84 877.169 40C875.783 40.16 874.769 40.5867 874.129 41.28C873.543 41.9733 873.249 43.1467 873.249 44.8C873.249 46.8267 873.729 48.16 874.689 48.8C875.649 49.44 877.063 49.9733 878.929 50.4L890.289 52.96C893.383 53.7067 895.649 54.8533 897.089 56.4C898.583 57.9467 899.329 60.3733 899.329 63.68C899.329 66.88 898.716 69.28 897.489 70.88C896.316 72.48 894.503 73.5467 892.049 74.08C889.596 74.6133 886.476 74.88 882.689 74.88C881.303 74.88 879.223 74.8267 876.449 74.72C873.729 74.6133 870.716 74.2933 867.409 73.76L867.889 68.8C869.169 68.8533 870.529 68.9333 871.969 69.04C873.409 69.0933 874.903 69.12 876.449 69.12C878.049 69.12 879.676 69.12 881.329 69.12C884.263 69.12 886.556 68.9867 888.209 68.72C889.863 68.4533 891.036 67.9467 891.729 67.2C892.423 66.4 892.769 65.2267 892.769 63.68C892.769 61.76 892.209 60.48 891.089 59.84C889.969 59.2 888.476 58.6667 886.609 58.24L875.409 55.68C873.276 55.1467 871.569 54.4533 870.289 53.6C869.009 52.6933 868.076 51.5467 867.489 50.16C866.903 48.72 866.609 46.9333 866.609 44.8C866.609 41.76 867.143 39.4667 868.209 37.92C869.276 36.3733 870.929 35.3333 873.169 34.8C875.409 34.2667 878.289 34.0267 881.809 34.08ZM975.872 34.08C977.579 34.08 979.392 34.1333 981.312 34.24C983.232 34.3467 985.125 34.48 986.992 34.64C988.912 34.8 990.672 35.0133 992.272 35.28L991.712 40.24C989.259 40.1333 986.779 40.0533 984.272 40C981.819 39.8933 979.365 39.84 976.912 39.84C974.512 39.7867 972.619 39.84 971.232 40C969.845 40.16 968.832 40.5867 968.192 41.28C967.605 41.9733 967.312 43.1467 967.312 44.8C967.312 46.8267 967.792 48.16 968.752 48.8C969.712 49.44 971.125 49.9733 972.992 50.4L984.352 52.96C987.445 53.7067 989.712 54.8533 991.152 56.4C992.645 57.9467 993.392 60.3733 993.392 63.68C993.392 66.88 992.779 69.28 991.552 70.88C990.379 72.48 988.565 73.5467 986.112 74.08C983.659 74.6133 980.539 74.88 976.752 74.88C975.365 74.88 973.285 74.8267 970.512 74.72C967.792 74.6133 964.779 74.2933 961.472 73.76L961.952 68.8C963.232 68.8533 964.592 68.9333 966.032 69.04C967.472 69.0933 968.965 69.12 970.512 69.12C972.112 69.12 973.739 69.12 975.392 69.12C978.325 69.12 980.619 68.9867 982.272 68.72C983.925 68.4533 985.099 67.9467 985.792 67.2C986.485 66.4 986.832 65.2267 986.832 63.68C986.832 61.76 986.272 60.48 985.152 59.84C984.032 59.2 982.539 58.6667 980.672 58.24L969.472 55.68C967.339 55.1467 965.632 54.4533 964.352 53.6C963.072 52.6933 962.139 51.5467 961.552 50.16C960.965 48.72 960.672 46.9333 960.672 44.8C960.672 41.76 961.205 39.4667 962.272 37.92C963.339 36.3733 964.992 35.3333 967.232 34.8C969.472 34.2667 972.352 34.0267 975.872 34.08ZM1035.38 35.04L1023.14 49.36C1022.76 49.84 1022.31 50.3467 1021.78 50.88C1021.24 51.36 1020.79 51.7333 1020.42 52V52.16C1020.79 52.4267 1021.24 52.88 1021.78 53.52C1022.31 54.1067 1022.76 54.6933 1023.14 55.28L1036.66 74H1028.74L1013.3 51.68L1027.46 35.04H1035.38ZM1010.34 18L1010.42 42.88C1010.42 44.5333 1010.34 46.08 1010.18 47.52C1010.07 48.9067 1009.88 50.3733 1009.62 51.92C1009.88 53.4133 1010.07 54.9067 1010.18 56.4C1010.28 57.8933 1010.34 59.3333 1010.34 60.72V74H1003.54V18H1010.34ZM1016.98 49.52V54.48H1007.94V49.52H1016.98ZM1051.28 35.04V74H1044.56V35.04H1051.28ZM1049.52 18.48C1050.91 18.48 1051.6 19.1733 1051.6 20.56V25.12C1051.6 26.5067 1050.91 27.2 1049.52 27.2H1046.32C1044.93 27.2 1044.24 26.5067 1044.24 25.12V20.56C1044.24 19.1733 1044.93 18.48 1046.32 18.48H1049.52ZM1070.96 18L1070.88 63.28C1070.88 64.9867 1071.34 66.2933 1072.24 67.2C1073.2 68.0533 1074.54 68.48 1076.24 68.48H1080L1080.8 73.68C1080.32 73.8933 1079.63 74.08 1078.72 74.24C1077.87 74.4 1076.96 74.5067 1076 74.56C1075.1 74.6667 1074.32 74.72 1073.68 74.72C1070.8 74.72 1068.48 73.8667 1066.72 72.16C1065.02 70.4533 1064.16 68 1064.16 64.8V18H1070.96ZM1094.71 18L1094.63 63.28C1094.63 64.9867 1095.09 66.2933 1095.99 67.2C1096.95 68.0533 1098.29 68.48 1099.99 68.48H1103.75L1104.55 73.68C1104.07 73.8933 1103.38 74.08 1102.47 74.24C1101.62 74.4 1100.71 74.5067 1099.75 74.56C1098.85 74.6667 1098.07 74.72 1097.43 74.72C1094.55 74.72 1092.23 73.8667 1090.47 72.16C1088.77 70.4533 1087.91 68 1087.91 64.8V18H1094.71ZM1124.54 34.08C1126.25 34.08 1128.06 34.1333 1129.98 34.24C1131.9 34.3467 1133.8 34.48 1135.66 34.64C1137.58 34.8 1139.34 35.0133 1140.94 35.28L1140.38 40.24C1137.93 40.1333 1135.45 40.0533 1132.94 40C1130.49 39.8933 1128.04 39.84 1125.58 39.84C1123.18 39.7867 1121.29 39.84 1119.9 40C1118.52 40.16 1117.5 40.5867 1116.86 41.28C1116.28 41.9733 1115.98 43.1467 1115.98 44.8C1115.98 46.8267 1116.46 48.16 1117.42 48.8C1118.38 49.44 1119.8 49.9733 1121.66 50.4L1133.02 52.96C1136.12 53.7067 1138.38 54.8533 1139.82 56.4C1141.32 57.9467 1142.06 60.3733 1142.06 63.68C1142.06 66.88 1141.45 69.28 1140.22 70.88C1139.05 72.48 1137.24 73.5467 1134.78 74.08C1132.33 74.6133 1129.21 74.88 1125.42 74.88C1124.04 74.88 1121.96 74.8267 1119.18 74.72C1116.46 74.6133 1113.45 74.2933 1110.14 73.76L1110.62 68.8C1111.9 68.8533 1113.26 68.9333 1114.7 69.04C1116.14 69.0933 1117.64 69.12 1119.18 69.12C1120.78 69.12 1122.41 69.12 1124.06 69.12C1127 69.12 1129.29 68.9867 1130.94 68.72C1132.6 68.4533 1133.77 67.9467 1134.46 67.2C1135.16 66.4 1135.5 65.2267 1135.5 63.68C1135.5 61.76 1134.94 60.48 1133.82 59.84C1132.7 59.2 1131.21 58.6667 1129.34 58.24L1118.14 55.68C1116.01 55.1467 1114.3 54.4533 1113.02 53.6C1111.74 52.6933 1110.81 51.5467 1110.22 50.16C1109.64 48.72 1109.34 46.9333 1109.34 44.8C1109.34 41.76 1109.88 39.4667 1110.94 37.92C1112.01 36.3733 1113.66 35.3333 1115.9 34.8C1118.14 34.2667 1121.02 34.0267 1124.54 34.08ZM1218.61 34.08C1220.31 34.08 1222.13 34.1333 1224.05 34.24C1225.97 34.3467 1227.86 34.48 1229.73 34.64C1231.65 34.8 1233.41 35.0133 1235.01 35.28L1234.45 40.24C1231.99 40.1333 1229.51 40.0533 1227.01 40C1224.55 39.8933 1222.1 39.84 1219.65 39.84C1217.25 39.7867 1215.35 39.84 1213.97 40C1212.58 40.16 1211.57 40.5867 1210.93 41.28C1210.34 41.9733 1210.05 43.1467 1210.05 44.8C1210.05 46.8267 1210.53 48.16 1211.49 48.8C1212.45 49.44 1213.86 49.9733 1215.73 50.4L1227.09 52.96C1230.18 53.7067 1232.45 54.8533 1233.89 56.4C1235.38 57.9467 1236.13 60.3733 1236.13 63.68C1236.13 66.88 1235.51 69.28 1234.29 70.88C1233.11 72.48 1231.3 73.5467 1228.85 74.08C1226.39 74.6133 1223.27 74.88 1219.49 74.88C1218.1 74.88 1216.02 74.8267 1213.25 74.72C1210.53 74.6133 1207.51 74.2933 1204.21 73.76L1204.69 68.8C1205.97 68.8533 1207.33 68.9333 1208.77 69.04C1210.21 69.0933 1211.7 69.12 1213.25 69.12C1214.85 69.12 1216.47 69.12 1218.13 69.12C1221.06 69.12 1223.35 68.9867 1225.01 68.72C1226.66 68.4533 1227.83 67.9467 1228.53 67.2C1229.22 66.4 1229.57 65.2267 1229.57 63.68C1229.57 61.76 1229.01 60.48 1227.89 59.84C1226.77 59.2 1225.27 58.6667 1223.41 58.24L1212.21 55.68C1210.07 55.1467 1208.37 54.4533 1207.09 53.6C1205.81 52.6933 1204.87 51.5467 1204.29 50.16C1203.7 48.72 1203.41 46.9333 1203.41 44.8C1203.41 41.76 1203.94 39.4667 1205.01 37.92C1206.07 36.3733 1207.73 35.3333 1209.97 34.8C1212.21 34.2667 1215.09 34.0267 1218.61 34.08ZM1278.11 35.04L1265.87 49.36C1265.5 49.84 1265.04 50.3467 1264.51 50.88C1263.98 51.36 1263.52 51.7333 1263.15 52V52.16C1263.52 52.4267 1263.98 52.88 1264.51 53.52C1265.04 54.1067 1265.5 54.6933 1265.87 55.28L1279.39 74H1271.47L1256.03 51.68L1270.19 35.04H1278.11ZM1253.07 18L1253.15 42.88C1253.15 44.5333 1253.07 46.08 1252.91 47.52C1252.8 48.9067 1252.62 50.3733 1252.35 51.92C1252.62 53.4133 1252.8 54.9067 1252.91 56.4C1253.02 57.8933 1253.07 59.3333 1253.07 60.72V74H1246.27V18H1253.07ZM1259.71 49.52V54.48H1250.67V49.52H1259.71ZM1294.01 35.04V74H1287.29V35.04H1294.01ZM1292.25 18.48C1293.64 18.48 1294.33 19.1733 1294.33 20.56V25.12C1294.33 26.5067 1293.64 27.2 1292.25 27.2H1289.05C1287.67 27.2 1286.97 26.5067 1286.97 25.12V20.56C1286.97 19.1733 1287.67 18.48 1289.05 18.48H1292.25ZM1313.7 18L1313.62 63.28C1313.62 64.9867 1314.07 66.2933 1314.98 67.2C1315.94 68.0533 1317.27 68.48 1318.98 68.48H1322.74L1323.54 73.68C1323.06 73.8933 1322.36 74.08 1321.46 74.24C1320.6 74.4 1319.7 74.5067 1318.74 74.56C1317.83 74.6667 1317.06 74.72 1316.42 74.72C1313.54 74.72 1311.22 73.8667 1309.46 72.16C1307.75 70.4533 1306.9 68 1306.9 64.8V18H1313.7ZM1337.45 18L1337.37 63.28C1337.37 64.9867 1337.82 66.2933 1338.73 67.2C1339.69 68.0533 1341.02 68.48 1342.73 68.48H1346.49L1347.29 73.68C1346.81 73.8933 1346.11 74.08 1345.21 74.24C1344.35 74.4 1343.45 74.5067 1342.49 74.56C1341.58 74.6667 1340.81 74.72 1340.17 74.72C1337.29 74.72 1334.97 73.8667 1333.21 72.16C1331.5 70.4533 1330.65 68 1330.65 64.8V18H1337.45ZM1367.28 34.08C1368.98 34.08 1370.8 34.1333 1372.72 34.24C1374.64 34.3467 1376.53 34.48 1378.4 34.64C1380.32 34.8 1382.08 35.0133 1383.68 35.28L1383.12 40.24C1380.66 40.1333 1378.18 40.0533 1375.68 40C1373.22 39.8933 1370.77 39.84 1368.32 39.84C1365.92 39.7867 1364.02 39.84 1362.64 40C1361.25 40.16 1360.24 40.5867 1359.6 41.28C1359.01 41.9733 1358.72 43.1467 1358.72 44.8C1358.72 46.8267 1359.2 48.16 1360.16 48.8C1361.12 49.44 1362.53 49.9733 1364.4 50.4L1375.76 52.96C1378.85 53.7067 1381.12 54.8533 1382.56 56.4C1384.05 57.9467 1384.8 60.3733 1384.8 63.68C1384.8 66.88 1384.18 69.28 1382.96 70.88C1381.78 72.48 1379.97 73.5467 1377.52 74.08C1375.06 74.6133 1371.94 74.88 1368.16 74.88C1366.77 74.88 1364.69 74.8267 1361.92 74.72C1359.2 74.6133 1356.18 74.2933 1352.88 73.76L1353.36 68.8C1354.64 68.8533 1356 68.9333 1357.44 69.04C1358.88 69.0933 1360.37 69.12 1361.92 69.12C1363.52 69.12 1365.14 69.12 1366.8 69.12C1369.73 69.12 1372.02 68.9867 1373.68 68.72C1375.33 68.4533 1376.5 67.9467 1377.2 67.2C1377.89 66.4 1378.24 65.2267 1378.24 63.68C1378.24 61.76 1377.68 60.48 1376.56 59.84C1375.44 59.2 1373.94 58.6667 1372.08 58.24L1360.88 55.68C1358.74 55.1467 1357.04 54.4533 1355.76 53.6C1354.48 52.6933 1353.54 51.5467 1352.96 50.16C1352.37 48.72 1352.08 46.9333 1352.08 44.8C1352.08 41.76 1352.61 39.4667 1353.68 37.92C1354.74 36.3733 1356.4 35.3333 1358.64 34.8C1360.88 34.2667 1363.76 34.0267 1367.28 34.08ZM1461.34 34.08C1463.05 34.08 1464.86 34.1333 1466.78 34.24C1468.7 34.3467 1470.59 34.48 1472.46 34.64C1474.38 34.8 1476.14 35.0133 1477.74 35.28L1477.18 40.24C1474.73 40.1333 1472.25 40.0533 1469.74 40C1467.29 39.8933 1464.83 39.84 1462.38 39.84C1459.98 39.7867 1458.09 39.84 1456.7 40C1455.31 40.16 1454.3 40.5867 1453.66 41.28C1453.07 41.9733 1452.78 43.1467 1452.78 44.8C1452.78 46.8267 1453.26 48.16 1454.22 48.8C1455.18 49.44 1456.59 49.9733 1458.46 50.4L1469.82 52.96C1472.91 53.7067 1475.18 54.8533 1476.62 56.4C1478.11 57.9467 1478.86 60.3733 1478.86 63.68C1478.86 66.88 1478.25 69.28 1477.02 70.88C1475.85 72.48 1474.03 73.5467 1471.58 74.08C1469.13 74.6133 1466.01 74.88 1462.22 74.88C1460.83 74.88 1458.75 74.8267 1455.98 74.72C1453.26 74.6133 1450.25 74.2933 1446.94 73.76L1447.42 68.8C1448.7 68.8533 1450.06 68.9333 1451.5 69.04C1452.94 69.0933 1454.43 69.12 1455.98 69.12C1457.58 69.12 1459.21 69.12 1460.86 69.12C1463.79 69.12 1466.09 68.9867 1467.74 68.72C1469.39 68.4533 1470.57 67.9467 1471.26 67.2C1471.95 66.4 1472.3 65.2267 1472.3 63.68C1472.3 61.76 1471.74 60.48 1470.62 59.84C1469.5 59.2 1468.01 58.6667 1466.14 58.24L1454.94 55.68C1452.81 55.1467 1451.1 54.4533 1449.82 53.6C1448.54 52.6933 1447.61 51.5467 1447.02 50.16C1446.43 48.72 1446.14 46.9333 1446.14 44.8C1446.14 41.76 1446.67 39.4667 1447.74 37.92C1448.81 36.3733 1450.46 35.3333 1452.7 34.8C1454.94 34.2667 1457.82 34.0267 1461.34 34.08ZM1520.85 35.04L1508.61 49.36C1508.23 49.84 1507.78 50.3467 1507.25 50.88C1506.71 51.36 1506.26 51.7333 1505.89 52V52.16C1506.26 52.4267 1506.71 52.88 1507.25 53.52C1507.78 54.1067 1508.23 54.6933 1508.61 55.28L1522.13 74H1514.21L1498.77 51.68L1512.93 35.04H1520.85ZM1495.81 18L1495.89 42.88C1495.89 44.5333 1495.81 46.08 1495.65 47.52C1495.54 48.9067 1495.35 50.3733 1495.09 51.92C1495.35 53.4133 1495.54 54.9067 1495.65 56.4C1495.75 57.8933 1495.81 59.3333 1495.81 60.72V74H1489.01V18H1495.81ZM1502.45 49.52V54.48H1493.41V49.52H1502.45ZM1536.75 35.04V74H1530.03V35.04H1536.75ZM1534.99 18.48C1536.38 18.48 1537.07 19.1733 1537.07 20.56V25.12C1537.07 26.5067 1536.38 27.2 1534.99 27.2H1531.79C1530.4 27.2 1529.71 26.5067 1529.71 25.12V20.56C1529.71 19.1733 1530.4 18.48 1531.79 18.48H1534.99ZM1556.43 18L1556.35 63.28C1556.35 64.9867 1556.81 66.2933 1557.71 67.2C1558.67 68.0533 1560.01 68.48 1561.71 68.48H1565.47L1566.27 73.68C1565.79 73.8933 1565.1 74.08 1564.19 74.24C1563.34 74.4 1562.43 74.5067 1561.47 74.56C1560.57 74.6667 1559.79 74.72 1559.15 74.72C1556.27 74.72 1553.95 73.8667 1552.19 72.16C1550.49 70.4533 1549.63 68 1549.63 64.8V18H1556.43ZM1580.18 18L1580.1 63.28C1580.1 64.9867 1580.56 66.2933 1581.46 67.2C1582.42 68.0533 1583.76 68.48 1585.46 68.48H1589.22L1590.02 73.68C1589.54 73.8933 1588.85 74.08 1587.94 74.24C1587.09 74.4 1586.18 74.5067 1585.22 74.56C1584.32 74.6667 1583.54 74.72 1582.9 74.72C1580.02 74.72 1577.7 73.8667 1575.94 72.16C1574.24 70.4533 1573.38 68 1573.38 64.8V18H1580.18ZM1610.01 34.08C1611.72 34.08 1613.53 34.1333 1615.45 34.24C1617.37 34.3467 1619.27 34.48 1621.13 34.64C1623.05 34.8 1624.81 35.0133 1626.41 35.28L1625.85 40.24C1623.4 40.1333 1620.92 40.0533 1618.41 40C1615.96 39.8933 1613.51 39.84 1611.05 39.84C1608.65 39.7867 1606.76 39.84 1605.37 40C1603.99 40.16 1602.97 40.5867 1602.33 41.28C1601.75 41.9733 1601.45 43.1467 1601.45 44.8C1601.45 46.8267 1601.93 48.16 1602.89 48.8C1603.85 49.44 1605.27 49.9733 1607.13 50.4L1618.49 52.96C1621.59 53.7067 1623.85 54.8533 1625.29 56.4C1626.79 57.9467 1627.53 60.3733 1627.53 63.68C1627.53 66.88 1626.92 69.28 1625.69 70.88C1624.52 72.48 1622.71 73.5467 1620.25 74.08C1617.8 74.6133 1614.68 74.88 1610.89 74.88C1609.51 74.88 1607.43 74.8267 1604.65 74.72C1601.93 74.6133 1598.92 74.2933 1595.61 73.76L1596.09 68.8C1597.37 68.8533 1598.73 68.9333 1600.17 69.04C1601.61 69.0933 1603.11 69.12 1604.65 69.12C1606.25 69.12 1607.88 69.12 1609.53 69.12C1612.47 69.12 1614.76 68.9867 1616.41 68.72C1618.07 68.4533 1619.24 67.9467 1619.93 67.2C1620.63 66.4 1620.97 65.2267 1620.97 63.68C1620.97 61.76 1620.41 60.48 1619.29 59.84C1618.17 59.2 1616.68 58.6667 1614.81 58.24L1603.61 55.68C1601.48 55.1467 1599.77 54.4533 1598.49 53.6C1597.21 52.6933 1596.28 51.5467 1595.69 50.16C1595.11 48.72 1594.81 46.9333 1594.81 44.8C1594.81 41.76 1595.35 39.4667 1596.41 37.92C1597.48 36.3733 1599.13 35.3333 1601.37 34.8C1603.61 34.2667 1606.49 34.0267 1610.01 34.08ZM1704.08 34.08C1705.78 34.08 1707.6 34.1333 1709.52 34.24C1711.44 34.3467 1713.33 34.48 1715.2 34.64C1717.12 34.8 1718.88 35.0133 1720.48 35.28L1719.92 40.24C1717.46 40.1333 1714.98 40.0533 1712.48 40C1710.02 39.8933 1707.57 39.84 1705.12 39.84C1702.72 39.7867 1700.82 39.84 1699.44 40C1698.05 40.16 1697.04 40.5867 1696.4 41.28C1695.81 41.9733 1695.52 43.1467 1695.52 44.8C1695.52 46.8267 1696 48.16 1696.96 48.8C1697.92 49.44 1699.33 49.9733 1701.2 50.4L1712.56 52.96C1715.65 53.7067 1717.92 54.8533 1719.36 56.4C1720.85 57.9467 1721.6 60.3733 1721.6 63.68C1721.6 66.88 1720.98 69.28 1719.76 70.88C1718.58 72.48 1716.77 73.5467 1714.32 74.08C1711.86 74.6133 1708.74 74.88 1704.96 74.88C1703.57 74.88 1701.49 74.8267 1698.72 74.72C1696 74.6133 1692.98 74.2933 1689.68 73.76L1690.15 68.8C1691.44 68.8533 1692.8 68.9333 1694.24 69.04C1695.68 69.0933 1697.17 69.12 1698.72 69.12C1700.32 69.12 1701.94 69.12 1703.6 69.12C1706.53 69.12 1708.82 68.9867 1710.48 68.72C1712.13 68.4533 1713.3 67.9467 1714 67.2C1714.69 66.4 1715.04 65.2267 1715.04 63.68C1715.04 61.76 1714.48 60.48 1713.36 59.84C1712.24 59.2 1710.74 58.6667 1708.88 58.24L1697.68 55.68C1695.54 55.1467 1693.84 54.4533 1692.56 53.6C1691.28 52.6933 1690.34 51.5467 1689.76 50.16C1689.17 48.72 1688.88 46.9333 1688.88 44.8C1688.88 41.76 1689.41 39.4667 1690.48 37.92C1691.54 36.3733 1693.2 35.3333 1695.43 34.8C1697.68 34.2667 1700.56 34.0267 1704.08 34.08ZM1763.58 35.04L1751.34 49.36C1750.97 49.84 1750.51 50.3467 1749.98 50.88C1749.45 51.36 1748.99 51.7333 1748.62 52V52.16C1748.99 52.4267 1749.45 52.88 1749.98 53.52C1750.51 54.1067 1750.97 54.6933 1751.34 55.28L1764.86 74H1756.94L1741.5 51.68L1755.66 35.04H1763.58ZM1738.54 18L1738.62 42.88C1738.62 44.5333 1738.54 46.08 1738.38 47.52C1738.27 48.9067 1738.09 50.3733 1737.82 51.92C1738.09 53.4133 1738.27 54.9067 1738.38 56.4C1738.49 57.8933 1738.54 59.3333 1738.54 60.72V74H1731.74V18H1738.54ZM1745.18 49.52V54.48H1736.14V49.52H1745.18ZM1779.48 35.04V74H1772.76V35.04H1779.48ZM1777.72 18.48C1779.11 18.48 1779.8 19.1733 1779.8 20.56V25.12C1779.8 26.5067 1779.11 27.2 1777.72 27.2H1774.52C1773.14 27.2 1772.44 26.5067 1772.44 25.12V20.56C1772.44 19.1733 1773.14 18.48 1774.52 18.48H1777.72ZM1799.17 18L1799.09 63.28C1799.09 64.9867 1799.54 66.2933 1800.45 67.2C1801.41 68.0533 1802.74 68.48 1804.45 68.48H1808.21L1809.01 73.68C1808.53 73.8933 1807.83 74.08 1806.93 74.24C1806.07 74.4 1805.17 74.5067 1804.21 74.56C1803.3 74.6667 1802.53 74.72 1801.89 74.72C1799.01 74.72 1796.69 73.8667 1794.93 72.16C1793.22 70.4533 1792.37 68 1792.37 64.8V18H1799.17ZM1822.92 18L1822.84 63.28C1822.84 64.9867 1823.29 66.2933 1824.2 67.2C1825.16 68.0533 1826.49 68.48 1828.2 68.48H1831.96L1832.76 73.68C1832.28 73.8933 1831.58 74.08 1830.68 74.24C1829.82 74.4 1828.92 74.5067 1827.96 74.56C1827.05 74.6667 1826.28 74.72 1825.64 74.72C1822.76 74.72 1820.44 73.8667 1818.68 72.16C1816.97 70.4533 1816.12 68 1816.12 64.8V18H1822.92ZM1852.75 34.08C1854.45 34.08 1856.27 34.1333 1858.19 34.24C1860.11 34.3467 1862 34.48 1863.87 34.64C1865.79 34.8 1867.55 35.0133 1869.15 35.28L1868.59 40.24C1866.13 40.1333 1863.65 40.0533 1861.15 40C1858.69 39.8933 1856.24 39.84 1853.79 39.84C1851.39 39.7867 1849.49 39.84 1848.11 40C1846.72 40.16 1845.71 40.5867 1845.07 41.28C1844.48 41.9733 1844.19 43.1467 1844.19 44.8C1844.19 46.8267 1844.67 48.16 1845.63 48.8C1846.59 49.44 1848 49.9733 1849.87 50.4L1861.23 52.96C1864.32 53.7067 1866.59 54.8533 1868.03 56.4C1869.52 57.9467 1870.27 60.3733 1870.27 63.68C1870.27 66.88 1869.65 69.28 1868.43 70.88C1867.25 72.48 1865.44 73.5467 1862.99 74.08C1860.53 74.6133 1857.41 74.88 1853.63 74.88C1852.24 74.88 1850.16 74.8267 1847.39 74.72C1844.67 74.6133 1841.65 74.2933 1838.35 73.76L1838.83 68.8C1840.11 68.8533 1841.47 68.9333 1842.91 69.04C1844.35 69.0933 1845.84 69.12 1847.39 69.12C1848.99 69.12 1850.61 69.12 1852.27 69.12C1855.2 69.12 1857.49 68.9867 1859.15 68.72C1860.8 68.4533 1861.97 67.9467 1862.67 67.2C1863.36 66.4 1863.71 65.2267 1863.71 63.68C1863.71 61.76 1863.15 60.48 1862.03 59.84C1860.91 59.2 1859.41 58.6667 1857.55 58.24L1846.35 55.68C1844.21 55.1467 1842.51 54.4533 1841.23 53.6C1839.95 52.6933 1839.01 51.5467 1838.43 50.16C1837.84 48.72 1837.55 46.9333 1837.55 44.8C1837.55 41.76 1838.08 39.4667 1839.15 37.92C1840.21 36.3733 1841.87 35.3333 1844.11 34.8C1846.35 34.2667 1849.23 34.0267 1852.75 34.08ZM1946.81 34.08C1948.52 34.08 1950.33 34.1333 1952.25 34.24C1954.17 34.3467 1956.06 34.48 1957.93 34.64C1959.85 34.8 1961.61 35.0133 1963.21 35.28L1962.65 40.24C1960.2 40.1333 1957.72 40.0533 1955.21 40C1952.76 39.8933 1950.3 39.84 1947.85 39.84C1945.45 39.7867 1943.56 39.84 1942.17 40C1940.78 40.16 1939.77 40.5867 1939.13 41.28C1938.54 41.9733 1938.25 43.1467 1938.25 44.8C1938.25 46.8267 1938.73 48.16 1939.69 48.8C1940.65 49.44 1942.06 49.9733 1943.93 50.4L1955.29 52.96C1958.38 53.7067 1960.65 54.8533 1962.09 56.4C1963.58 57.9467 1964.33 60.3733 1964.33 63.68C1964.33 66.88 1963.72 69.28 1962.49 70.88C1961.32 72.48 1959.5 73.5467 1957.05 74.08C1954.6 74.6133 1951.48 74.88 1947.69 74.88C1946.3 74.88 1944.22 74.8267 1941.45 74.72C1938.73 74.6133 1935.72 74.2933 1932.41 73.76L1932.89 68.8C1934.17 68.8533 1935.53 68.9333 1936.97 69.04C1938.41 69.0933 1939.9 69.12 1941.45 69.12C1943.05 69.12 1944.68 69.12 1946.33 69.12C1949.26 69.12 1951.56 68.9867 1953.21 68.72C1954.86 68.4533 1956.04 67.9467 1956.73 67.2C1957.42 66.4 1957.77 65.2267 1957.77 63.68C1957.77 61.76 1957.21 60.48 1956.09 59.84C1954.97 59.2 1953.48 58.6667 1951.61 58.24L1940.41 55.68C1938.28 55.1467 1936.57 54.4533 1935.29 53.6C1934.01 52.6933 1933.08 51.5467 1932.49 50.16C1931.9 48.72 1931.61 46.9333 1931.61 44.8C1931.61 41.76 1932.14 39.4667 1933.21 37.92C1934.28 36.3733 1935.93 35.3333 1938.17 34.8C1940.41 34.2667 1943.29 34.0267 1946.81 34.08ZM2006.31 35.04L1994.07 49.36C1993.7 49.84 1993.25 50.3467 1992.71 50.88C1992.18 51.36 1991.73 51.7333 1991.35 52V52.16C1991.73 52.4267 1992.18 52.88 1992.71 53.52C1993.25 54.1067 1993.7 54.6933 1994.07 55.28L2007.59 74H1999.67L1984.23 51.68L1998.39 35.04H2006.31ZM1981.27 18L1981.35 42.88C1981.35 44.5333 1981.27 46.08 1981.11 47.52C1981.01 48.9067 1980.82 50.3733 1980.55 51.92C1980.82 53.4133 1981.01 54.9067 1981.11 56.4C1981.22 57.8933 1981.27 59.3333 1981.27 60.72V74H1974.47V18H1981.27ZM1987.91 49.52V54.48H1978.87V49.52H1987.91ZM2022.22 35.04V74H2015.5V35.04H2022.22ZM2020.46 18.48C2021.84 18.48 2022.54 19.1733 2022.54 20.56V25.12C2022.54 26.5067 2021.84 27.2 2020.46 27.2H2017.26C2015.87 27.2 2015.18 26.5067 2015.18 25.12V20.56C2015.18 19.1733 2015.87 18.48 2017.26 18.48H2020.46ZM2041.9 18L2041.82 63.28C2041.82 64.9867 2042.27 66.2933 2043.18 67.2C2044.14 68.0533 2045.47 68.48 2047.18 68.48H2050.94L2051.74 73.68C2051.26 73.8933 2050.57 74.08 2049.66 74.24C2048.81 74.4 2047.9 74.5067 2046.94 74.56C2046.03 74.6667 2045.26 74.72 2044.62 74.72C2041.74 74.72 2039.42 73.8667 2037.66 72.16C2035.95 70.4533 2035.1 68 2035.1 64.8V18H2041.9ZM2065.65 18L2065.57 63.28C2065.57 64.9867 2066.02 66.2933 2066.93 67.2C2067.89 68.0533 2069.22 68.48 2070.93 68.48H2074.69L2075.49 73.68C2075.01 73.8933 2074.32 74.08 2073.41 74.24C2072.56 74.4 2071.65 74.5067 2070.69 74.56C2069.78 74.6667 2069.01 74.72 2068.37 74.72C2065.49 74.72 2063.17 73.8667 2061.41 72.16C2059.7 70.4533 2058.85 68 2058.85 64.8V18H2065.65ZM2095.48 34.08C2097.19 34.08 2099 34.1333 2100.92 34.24C2102.84 34.3467 2104.73 34.48 2106.6 34.64C2108.52 34.8 2110.28 35.0133 2111.88 35.28L2111.32 40.24C2108.87 40.1333 2106.39 40.0533 2103.88 40C2101.43 39.8933 2098.97 39.84 2096.52 39.84C2094.12 39.7867 2092.23 39.84 2090.84 40C2089.45 40.16 2088.44 40.5867 2087.8 41.28C2087.21 41.9733 2086.92 43.1467 2086.92 44.8C2086.92 46.8267 2087.4 48.16 2088.36 48.8C2089.32 49.44 2090.73 49.9733 2092.6 50.4L2103.96 52.96C2107.05 53.7067 2109.32 54.8533 2110.76 56.4C2112.25 57.9467 2113 60.3733 2113 63.68C2113 66.88 2112.39 69.28 2111.16 70.88C2109.99 72.48 2108.17 73.5467 2105.72 74.08C2103.27 74.6133 2100.15 74.88 2096.36 74.88C2094.97 74.88 2092.89 74.8267 2090.12 74.72C2087.4 74.6133 2084.39 74.2933 2081.08 73.76L2081.56 68.8C2082.84 68.8533 2084.2 68.9333 2085.64 69.04C2087.08 69.0933 2088.57 69.12 2090.12 69.12C2091.72 69.12 2093.35 69.12 2095 69.12C2097.93 69.12 2100.23 68.9867 2101.88 68.72C2103.53 68.4533 2104.71 67.9467 2105.4 67.2C2106.09 66.4 2106.44 65.2267 2106.44 63.68C2106.44 61.76 2105.88 60.48 2104.76 59.84C2103.64 59.2 2102.15 58.6667 2100.28 58.24L2089.08 55.68C2086.95 55.1467 2085.24 54.4533 2083.96 53.6C2082.68 52.6933 2081.75 51.5467 2081.16 50.16C2080.57 48.72 2080.28 46.9333 2080.28 44.8C2080.28 41.76 2080.81 39.4667 2081.88 37.92C2082.95 36.3733 2084.6 35.3333 2086.84 34.8C2089.08 34.2667 2091.96 34.0267 2095.48 34.08Z" fill="black"/>
</svg>
