<svg width="132" height="132" viewBox="0 0 132 132" fill="none" xmlns="http://www.w3.org/2000/svg">
<g clip-path="url(#clip0_33_12)">
<path d="M131.377 66.0251C131.377 102.265 102.024 131.618 65.784 131.618C29.5439 131.618 0.19104 102.265 0.19104 66.0251C0.19104 29.785 29.5439 0.432129 65.784 0.432129C102.024 0.432129 131.377 29.785 131.377 66.0251Z" fill="url(#paint0_linear_33_12)"/>
<path d="M53.7587 96.0886C51.6269 96.0886 52.0095 95.2687 51.2443 93.2463L45.0129 72.6938L83.7128 48.5337L88.2497 49.7362L84.4781 60.0125L53.7587 96.0886Z" fill="#C8DAEA"/>
<path d="M53.7587 96.0886C55.3985 96.0886 56.1091 95.3234 57.0383 94.4488C58.4595 93.0823 76.7162 75.3175 76.7162 75.3175L65.5107 72.5845L55.1252 79.1438L53.7587 95.542V96.0886Z" fill="#A9C9DD"/>
<path d="M54.8518 79.3623L81.3077 98.8762C84.314 100.516 86.5005 99.6961 87.2657 96.0885L98.0339 45.3632C99.1271 40.9357 96.3394 38.9679 93.4424 40.2798L30.2545 64.6585C25.9362 66.4077 25.9909 68.8127 29.4892 69.8513L45.7235 74.9347L83.2755 51.2666C85.0246 50.1734 86.6644 50.7747 85.3526 51.9772L54.8518 79.3623Z" fill="url(#paint1_linear_33_12)"/>
</g>
<defs>
<linearGradient id="paint0_linear_33_12" x1="85.0083" y1="21.165" x2="52.2118" y2="97.6891" gradientUnits="userSpaceOnUse">
<stop stop-color="#37AEE2"/>
<stop offset="1" stop-color="#1E96C8"/>
</linearGradient>
<linearGradient id="paint1_linear_33_12" x1="70.6986" y1="68.0775" x2="84.3638" y2="89.9419" gradientUnits="userSpaceOnUse">
<stop stop-color="#EFF7FC"/>
<stop offset="1" stop-color="white"/>
</linearGradient>
<clipPath id="clip0_33_12">
<rect width="131.186" height="131.186" fill="white" transform="translate(0.19104 0.432129)"/>
</clipPath>
</defs>
</svg>
