<svg width="148" height="148" viewBox="0 0 148 148" fill="none" xmlns="http://www.w3.org/2000/svg">
<g clip-path="url(#clip0_1_376)">
<path d="M74 0C54.374 0 35.5518 7.79641 21.6741 21.6741C7.79641 35.5518 0 54.374 0 74C0 93.626 7.79641 112.448 21.6741 126.326C35.5518 140.204 54.374 148 74 148C93.626 148 112.448 140.204 126.326 126.326C140.204 112.448 148 93.626 148 74C148 54.374 140.204 35.5518 126.326 21.6741C112.448 7.79641 93.626 0 74 0ZM93.5052 134.329H92.9317C92.5009 134.353 92.0697 134.289 91.6646 134.14C91.2595 133.992 90.889 133.762 90.576 133.465C90.2867 133.159 90.0614 132.799 89.9131 132.405C89.7649 132.011 89.6967 131.592 89.7127 131.171V122.501C89.7497 119.621 89.7743 116.704 89.7743 113.769C89.7642 111.622 89.4508 109.488 88.8432 107.429C88.2676 105.348 87.1077 103.476 85.5008 102.034C89.799 101.619 94.0242 100.642 98.0685 99.1292C101.48 97.8318 104.566 95.8027 107.109 93.1845C109.619 90.5513 111.487 87.3693 112.566 83.8975C113.879 79.6457 114.504 75.2114 114.416 70.7625C114.44 67.6562 113.897 64.5716 112.813 61.6605C111.711 58.7264 110.046 56.0364 107.91 53.7425C108.372 52.5855 108.706 51.3823 108.909 50.1535C109.113 48.9202 109.218 47.6745 109.218 46.4288C109.218 44.8255 109.033 43.2222 108.663 41.662C108.327 40.0618 107.871 38.489 107.3 36.9568C107.082 36.8718 106.849 36.8299 106.615 36.8335H105.937C104.519 36.8458 103.125 37.0802 101.781 37.518C100.3 37.9502 98.8514 38.486 97.4457 39.1213C96.0477 39.7479 94.6867 40.4542 93.3695 41.2365C92.0437 42.0197 90.872 42.772 89.836 43.4688C79.462 40.5775 68.4949 40.5775 58.1208 43.4688C56.9639 42.6954 55.7877 41.951 54.5935 41.2365C53.2576 40.4476 51.8735 39.7432 50.4495 39.1275C49.0476 38.4711 47.5934 37.9327 46.102 37.518C44.7842 37.0826 43.4074 36.8518 42.0197 36.8335H41.3413C41.1094 36.8302 40.879 36.8721 40.663 36.9568C40.0837 38.4911 39.6098 40.0632 39.2447 41.662C38.9117 43.2283 38.7513 44.8255 38.7452 46.4288C38.7452 47.6745 38.85 48.9202 39.0597 50.1535C39.2632 51.3807 39.59 52.5832 40.0463 53.7425C37.9163 56.0395 36.257 58.7316 35.1623 61.6667C34.0726 64.5768 33.5229 67.6613 33.5405 70.7687C33.4542 75.1937 34.0618 79.605 35.3412 83.842C36.4573 87.3138 38.3197 90.502 40.7925 93.1907C43.3517 95.793 46.435 97.8157 49.8328 99.1353C53.8597 100.677 58.0777 101.664 62.3697 102.071C61.1713 103.157 60.2207 104.488 59.5823 105.974C58.9751 107.444 58.5605 108.986 58.349 110.562C56.0863 111.646 53.6118 112.214 51.1032 112.227C48.7735 112.32 46.4742 111.673 44.5357 110.377C42.676 108.999 41.1012 107.273 39.8983 105.296C39.36 104.465 38.758 103.678 38.0977 102.94C37.4011 102.165 36.633 101.456 35.8037 100.825C34.9862 100.214 34.0901 99.7164 33.1397 99.345C32.2045 98.935 31.1946 98.7229 30.1735 98.7222C29.9268 98.7283 29.6802 98.753 29.4335 98.7838C29.0966 98.7827 28.761 98.8242 28.4345 98.9072C28.1476 98.9823 27.8762 99.1075 27.6328 99.2772C27.5222 99.3381 27.4297 99.4273 27.3647 99.5356C27.2997 99.6439 27.2646 99.7675 27.2628 99.8938C27.2887 100.191 27.3795 100.478 27.5287 100.736C27.6778 100.994 27.8818 101.216 28.1262 101.386C28.6997 101.842 29.1745 102.194 29.5568 102.441L29.7418 102.57C30.562 103.205 31.3513 103.89 32.0975 104.624C32.7882 105.228 33.411 105.912 33.9475 106.659C34.5025 107.392 34.9835 108.176 35.372 109.008C35.8222 109.834 36.297 110.784 36.7965 111.863C37.9558 114.786 40.0155 117.259 42.6795 118.924C45.473 120.423 48.6057 121.169 51.7815 121.089C52.8545 121.089 53.9337 121.027 55.0005 120.904C56.0612 120.731 57.1157 120.552 58.1763 120.342V131.091C58.1955 131.524 58.1231 131.957 57.9637 132.36C57.8043 132.764 57.5615 133.129 57.2513 133.432C56.9411 133.736 56.5704 133.97 56.1634 134.12C55.7564 134.27 55.3223 134.333 54.8895 134.304H54.5072C40.1267 129.658 27.8774 120.031 19.965 107.156C12.0526 94.2805 8.99695 79.0033 11.3484 64.0752C13.6998 49.1471 21.3038 35.549 32.7911 25.7296C44.2783 15.9101 58.894 10.5146 74.0062 10.5146C89.1184 10.5146 103.734 15.9101 115.221 25.7296C126.709 35.549 134.312 49.1471 136.664 64.0752C139.015 79.0033 135.96 94.2805 128.047 107.156C120.135 120.031 107.886 129.658 93.5052 134.304V134.329Z" fill="white"/>
</g>
<defs>
<clipPath id="clip0_1_376">
<rect width="148" height="148" fill="white"/>
</clipPath>
</defs>
</svg>
