<svg width="153" height="144" viewBox="0 0 153 144" fill="none" xmlns="http://www.w3.org/2000/svg">
<g clip-path="url(#clip0_1_356)">
<path d="M73.3604 143.084H79.7313C114.315 143.084 131.611 143.084 142.351 133.04C153.092 122.995 153 106.827 153 74.564V68.5202C153 36.2633 153 20.089 142.351 10.0445C131.702 2.83828e-05 114.315 0 79.7313 0H73.3604C38.7702 0 21.4812 2.83828e-05 10.7406 10.0445C-7.00378e-06 20.089 0 36.2518 0 68.5202V74.564C0 106.827 -7.00378e-06 122.995 10.7406 133.04C21.4812 143.084 38.7702 143.084 73.3604 143.084Z" fill="#0077FF"/>
<path d="M82.1009 103.163C47.6025 103.163 26.666 80.7792 25.8521 43.583H43.3246C43.8693 70.9064 57.162 82.5019 67.3518 84.8656V43.583H84.1022V67.1576C93.9309 66.1388 104.213 55.4132 107.676 43.583H124.145C121.508 58.1375 110.314 68.8631 102.395 73.2873C110.314 76.8644 123.056 86.2278 127.97 103.163H109.861C106.036 91.8424 96.6604 83.0742 84.1022 81.8838V103.163H82.1009Z" fill="white"/>
</g>
<defs>
<clipPath id="clip0_1_356">
<rect width="153" height="143.084" fill="white"/>
</clipPath>
</defs>
</svg>
